<svg width="303" height="50" viewBox="0 0 303 50" fill="none" xmlns="http://www.w3.org/2000/svg">
<path d="M19.278 3.06008C23.12 3.06008 26.486 3.79108 29.376 5.25308C32.266 6.71508 34.51 8.82308 36.108 11.5771C37.706 14.2971 38.505 17.6121 38.505 21.5221C38.505 25.3301 37.689 28.6621 36.057 31.5181C34.425 34.3741 32.147 36.6011 29.223 38.1991C26.333 39.7971 23.001 40.5961 19.227 40.5961C15.385 40.5961 12.019 39.8651 9.129 38.4031C6.239 36.9411 3.995 34.8331 2.397 32.0791C0.799002 29.3251 1.5758e-06 26.0101 1.5758e-06 22.1341C1.5758e-06 18.3261 0.816002 14.9941 2.448 12.1381C4.114 9.28208 6.392 7.05508 9.282 5.45708C12.172 3.85908 15.504 3.06008 19.278 3.06008ZM19.074 3.97808C17.374 3.97808 15.895 4.74308 14.637 6.27308C13.379 7.80308 12.41 9.91108 11.73 12.5971C11.05 15.2831 10.71 18.3941 10.71 21.9301C10.71 25.5341 11.101 28.6791 11.883 31.3651C12.665 34.0171 13.719 36.0741 15.045 37.5361C16.371 38.9641 17.833 39.6781 19.431 39.6781C21.131 39.6781 22.61 38.9131 23.868 37.3831C25.126 35.8531 26.095 33.7451 26.775 31.0591C27.455 28.3391 27.795 25.2281 27.795 21.7261C27.795 18.0881 27.404 14.9431 26.622 12.2911C25.84 9.63908 24.786 7.59908 23.46 6.17108C22.134 4.70908 20.672 3.97808 19.074 3.97808ZM68.2966 12.8521V34.3231C68.2966 35.8531 68.5006 36.9921 68.9086 37.7401C69.3506 38.4541 70.0986 38.8111 71.1526 38.8111V39.8821C70.0986 39.7801 69.0446 39.7291 67.9906 39.7291C66.2906 39.7291 64.7096 39.7801 63.2476 39.8821C61.7856 39.9841 60.4086 40.1711 59.1166 40.4431V36.7711C58.3006 38.1311 57.1956 39.1171 55.8016 39.7291C54.4416 40.3071 52.8436 40.5961 51.0076 40.5961C49.4436 40.5961 48.2026 40.3921 47.2846 39.9841C46.4006 39.6101 45.7206 39.1341 45.2446 38.5561C44.7346 37.9441 44.3606 37.1281 44.1226 36.1081C43.8846 35.0881 43.7656 33.7111 43.7656 31.9771V18.9721C43.7656 17.4421 43.5616 16.3201 43.1536 15.6061C42.7456 14.8581 41.9976 14.4841 40.9096 14.4841V13.4131C41.9976 13.5151 43.0516 13.5661 44.0716 13.5661C45.7716 13.5661 47.3526 13.5151 48.8146 13.4131C50.3106 13.2771 51.6876 13.0901 52.9456 12.8521V34.7311C52.9456 35.4451 53.0306 36.0401 53.2006 36.5161C53.3706 36.9921 53.6426 37.3491 54.0166 37.5871C54.3906 37.8251 54.8666 37.9441 55.4446 37.9441C56.3966 37.9441 57.2466 37.6041 57.9946 36.9241C58.7426 36.2101 59.1166 35.3261 59.1166 34.2721V18.9721C59.1166 17.4421 58.9126 16.3201 58.5046 15.6061C58.0966 14.8581 57.3486 14.4841 56.2606 14.4841V13.4131C57.3486 13.5151 58.4026 13.5661 59.4226 13.5661C61.1226 13.5661 62.7036 13.5151 64.1656 13.4131C65.6616 13.2771 67.0386 13.0901 68.2966 12.8521ZM91.7602 12.6991C92.9842 12.6991 93.9362 12.9711 94.6162 13.5151C95.2962 14.0251 95.7722 14.6881 96.0442 15.5041C96.3162 16.2861 96.4522 17.0681 96.4522 17.8501C96.4522 19.3801 96.0102 20.6041 95.1262 21.5221C94.2762 22.4061 93.1542 22.8481 91.7602 22.8481C90.2642 22.8481 89.1252 22.5081 88.3432 21.8281C87.5952 21.1481 87.2212 20.2641 87.2212 19.1761C87.2212 18.0201 87.4592 17.0681 87.9352 16.3201C88.4452 15.5721 89.0742 14.9431 89.8222 14.4331C89.2102 14.4331 88.6662 14.5521 88.1902 14.7901C87.6462 15.0281 87.1362 15.3851 86.6602 15.8611C86.2182 16.3031 85.8612 16.8301 85.5892 17.4421C85.3172 18.0201 85.1812 18.6491 85.1812 19.3291V34.6291C85.1812 36.2611 85.5212 37.3661 86.2012 37.9441C86.8812 38.5221 88.0032 38.8111 89.5672 38.8111V39.8821C88.7852 39.8481 87.6122 39.8141 86.0482 39.7801C84.5182 39.7121 82.9372 39.6781 81.3052 39.6781C79.7752 39.6781 78.2282 39.7121 76.6642 39.7801C75.1002 39.8141 73.9272 39.8481 73.1452 39.8821V38.8111C74.1992 38.8111 74.9302 38.5561 75.3382 38.0461C75.7802 37.5361 76.0012 36.5671 76.0012 35.1391V18.9721C76.0012 17.4421 75.7972 16.3201 75.3892 15.6061C74.9812 14.8581 74.2332 14.4841 73.1452 14.4841V13.4131C74.2332 13.5151 75.2872 13.5661 76.3072 13.5661C78.0072 13.5661 79.5882 13.5151 81.0502 13.4131C82.5462 13.2771 83.9232 13.0901 85.1812 12.8521V16.5241C85.6232 15.6401 86.1672 14.9261 86.8132 14.3821C87.4592 13.8041 88.1902 13.3791 89.0062 13.1071C89.8562 12.8351 90.7742 12.6991 91.7602 12.6991ZM108.316 3.77408C109.302 3.80808 110.594 3.84208 112.192 3.87608C113.824 3.91008 115.456 3.92708 117.088 3.92708C118.788 3.92708 120.42 3.91008 121.984 3.87608C123.548 3.84208 124.653 3.82508 125.299 3.82508C130.467 3.82508 134.309 4.76008 136.825 6.63008C139.375 8.50008 140.65 10.9141 140.65 13.8721C140.65 15.0961 140.395 16.3881 139.885 17.7481C139.375 19.0741 138.508 20.3151 137.284 21.4711C136.06 22.5931 134.377 23.5111 132.235 24.2251C130.127 24.9391 127.441 25.2961 124.177 25.2961H118.771V24.2761H123.667C125.401 24.2761 126.71 23.8171 127.594 22.8991C128.512 21.9811 129.124 20.7741 129.43 19.2781C129.77 17.7821 129.94 16.1671 129.94 14.4331C129.94 11.2031 129.566 8.78908 128.818 7.19108C128.104 5.59308 126.846 4.79408 125.044 4.79408C123.888 4.79408 123.14 5.08308 122.8 5.66108C122.46 6.23908 122.29 7.41208 122.29 9.18008V33.9661C122.29 35.3601 122.426 36.3971 122.698 37.0771C123.004 37.7571 123.565 38.1991 124.381 38.4031C125.197 38.6071 126.387 38.7091 127.951 38.7091V39.8821C126.795 39.8481 125.282 39.8141 123.412 39.7801C121.542 39.7461 119.553 39.7291 117.445 39.7291C115.881 39.7291 114.317 39.7461 112.753 39.7801C111.189 39.8141 109.71 39.8481 108.316 39.8821V38.8621C109.37 38.7941 110.152 38.6581 110.662 38.4541C111.172 38.2501 111.512 37.8421 111.682 37.2301C111.852 36.6181 111.937 35.7001 111.937 34.4761V9.18008C111.937 7.92208 111.852 7.00408 111.682 6.42608C111.512 5.81408 111.155 5.40608 110.611 5.20208C110.101 4.96408 109.336 4.82808 108.316 4.79408V3.77408ZM161.138 12.6991C162.362 12.6991 163.314 12.9711 163.994 13.5151C164.674 14.0251 165.15 14.6881 165.422 15.5041C165.694 16.2861 165.83 17.0681 165.83 17.8501C165.83 19.3801 165.388 20.6041 164.504 21.5221C163.654 22.4061 162.532 22.8481 161.138 22.8481C159.642 22.8481 158.503 22.5081 157.721 21.8281C156.973 21.1481 156.599 20.2641 156.599 19.1761C156.599 18.0201 156.837 17.0681 157.313 16.3201C157.823 15.5721 158.452 14.9431 159.2 14.4331C158.588 14.4331 158.044 14.5521 157.568 14.7901C157.024 15.0281 156.514 15.3851 156.038 15.8611C155.596 16.3031 155.239 16.8301 154.967 17.4421C154.695 18.0201 154.559 18.6491 154.559 19.3291V34.6291C154.559 36.2611 154.899 37.3661 155.579 37.9441C156.259 38.5221 157.381 38.8111 158.945 38.8111V39.8821C158.163 39.8481 156.99 39.8141 155.426 39.7801C153.896 39.7121 152.315 39.6781 150.683 39.6781C149.153 39.6781 147.606 39.7121 146.042 39.7801C144.478 39.8141 143.305 39.8481 142.523 39.8821V38.8111C143.577 38.8111 144.308 38.5561 144.716 38.0461C145.158 37.5361 145.379 36.5671 145.379 35.1391V18.9721C145.379 17.4421 145.175 16.3201 144.767 15.6061C144.359 14.8581 143.611 14.4841 142.523 14.4841V13.4131C143.611 13.5151 144.665 13.5661 145.685 13.5661C147.385 13.5661 148.966 13.5151 150.428 13.4131C151.924 13.2771 153.301 13.0901 154.559 12.8521V16.5241C155.001 15.6401 155.545 14.9261 156.191 14.3821C156.837 13.8041 157.568 13.3791 158.384 13.1071C159.234 12.8351 160.152 12.6991 161.138 12.6991ZM180.196 12.6991C182.848 12.6991 185.143 13.1581 187.081 14.0761C189.053 14.9601 190.583 16.4221 191.671 18.4621C192.759 20.5021 193.303 23.2391 193.303 26.6731C193.303 30.1071 192.759 32.8441 191.671 34.8841C190.583 36.9241 189.053 38.3861 187.081 39.2701C185.143 40.1541 182.848 40.5961 180.196 40.5961C177.578 40.5961 175.283 40.1541 173.311 39.2701C171.339 38.3861 169.809 36.9241 168.721 34.8841C167.633 32.8441 167.089 30.1071 167.089 26.6731C167.089 23.2391 167.633 20.5021 168.721 18.4621C169.809 16.4221 171.339 14.9601 173.311 14.0761C175.283 13.1581 177.578 12.6991 180.196 12.6991ZM180.196 13.7191C179.176 13.7191 178.326 14.7391 177.646 16.7791C176.966 18.8191 176.626 22.1171 176.626 26.6731C176.626 31.2291 176.966 34.5271 177.646 36.5671C178.326 38.5731 179.176 39.5761 180.196 39.5761C181.216 39.5761 182.066 38.5731 182.746 36.5671C183.426 34.5271 183.766 31.2291 183.766 26.6731C183.766 22.1171 183.426 18.8191 182.746 16.7791C182.066 14.7391 181.216 13.7191 180.196 13.7191ZM193.822 49.4701V48.4501C195.182 48.4501 196.321 47.9571 197.239 46.9711C198.191 46.0191 198.667 44.3701 198.667 42.0241V18.9721C198.667 17.4421 198.463 16.3201 198.055 15.6061C197.647 14.8581 196.899 14.4841 195.811 14.4841V13.4131C196.899 13.5151 197.953 13.5661 198.973 13.5661C200.673 13.5661 202.254 13.5151 203.716 13.4131C205.212 13.2771 206.589 13.0901 207.847 12.8521V35.8021C207.847 38.7941 207.575 41.1061 207.031 42.7381C206.487 44.3701 205.552 45.7641 204.226 46.9201C203.376 47.6681 202.135 48.2801 200.503 48.7561C198.871 49.2321 196.644 49.4701 193.822 49.4701ZM202.696 7.67708e-05C204.464 7.67708e-05 205.824 0.374077 206.776 1.12208C207.762 1.83608 208.255 2.92408 208.255 4.38608C208.255 5.84808 207.762 6.95308 206.776 7.70108C205.824 8.41508 204.464 8.77208 202.696 8.77208C200.928 8.77208 199.551 8.41508 198.565 7.70108C197.613 6.95308 197.137 5.84808 197.137 4.38608C197.137 2.92408 197.613 1.83608 198.565 1.12208C199.551 0.374077 200.928 7.67708e-05 202.696 7.67708e-05ZM225.767 12.6991C228.759 12.6991 231.105 13.5831 232.805 15.3511C234.539 17.0851 235.406 20.0091 235.406 24.1231H219.443L219.341 23.1541H227.96C227.994 21.4881 227.926 19.9581 227.756 18.5641C227.586 17.1361 227.314 15.9971 226.94 15.1471C226.566 14.2971 226.056 13.8721 225.41 13.8721C224.492 13.8721 223.744 14.6031 223.166 16.0651C222.588 17.4931 222.214 19.9581 222.044 23.4601L222.248 23.8681C222.214 24.2081 222.197 24.5481 222.197 24.8881C222.197 25.2281 222.197 25.5851 222.197 25.9591C222.197 28.3391 222.486 30.1921 223.064 31.5181C223.676 32.8441 224.424 33.7621 225.308 34.2721C226.226 34.7821 227.144 35.0371 228.062 35.0371C228.742 35.0371 229.66 34.8671 230.816 34.5271C231.972 34.1531 233.111 33.1841 234.233 31.6201L235.1 31.9261C234.692 33.2861 234.029 34.6461 233.111 36.0061C232.227 37.3321 231.071 38.4371 229.643 39.3211C228.215 40.1711 226.481 40.5961 224.441 40.5961C222.265 40.5961 220.276 40.1541 218.474 39.2701C216.706 38.3861 215.295 36.9241 214.241 34.8841C213.187 32.8441 212.66 30.1071 212.66 26.6731C212.66 23.4091 213.238 20.7571 214.394 18.7171C215.55 16.6431 217.114 15.1301 219.086 14.1781C221.092 13.1921 223.319 12.6991 225.767 12.6991ZM251.365 12.6991C252.861 12.6991 254.187 12.8521 255.343 13.1581C256.499 13.4641 257.417 13.8211 258.097 14.2291C259.015 14.7731 259.746 15.5041 260.29 16.4221C260.868 17.3061 261.157 18.3431 261.157 19.5331C261.157 20.9271 260.698 22.1001 259.78 23.0521C258.862 24.0041 257.689 24.4801 256.261 24.4801C254.765 24.4801 253.609 24.0551 252.793 23.2051C251.977 22.3551 251.569 21.2501 251.569 19.8901C251.569 18.5981 251.977 17.5101 252.793 16.6261C253.643 15.7081 254.629 15.0961 255.751 14.7901C255.513 14.6201 255.224 14.4841 254.884 14.3821C254.578 14.2461 254.187 14.1781 253.711 14.1781C252.487 14.1781 251.484 14.5521 250.702 15.3001C249.954 16.0141 249.359 16.9661 248.917 18.1561C248.509 19.3461 248.22 20.6211 248.05 21.9811C247.88 23.3411 247.795 24.6671 247.795 25.9591C247.795 28.3391 248.118 30.1921 248.764 31.5181C249.41 32.8441 250.226 33.7621 251.212 34.2721C252.198 34.7821 253.184 35.0371 254.17 35.0371C254.85 35.0371 255.768 34.8671 256.924 34.5271C258.08 34.1531 259.219 33.1841 260.341 31.6201L261.208 31.9261C260.8 33.2861 260.137 34.6461 259.219 36.0061C258.335 37.3321 257.179 38.4371 255.751 39.3211C254.323 40.1711 252.589 40.5961 250.549 40.5961C248.271 40.5961 246.197 40.1541 244.327 39.2701C242.491 38.3861 241.012 36.9241 239.89 34.8841C238.802 32.8441 238.258 30.1071 238.258 26.6731C238.258 23.4091 238.836 20.7571 239.992 18.7171C241.148 16.6431 242.712 15.1301 244.684 14.1781C246.69 13.1921 248.917 12.6991 251.365 12.6991ZM275.23 5.15108V13.4131H280.228V14.4331H275.23V35.5981C275.23 36.2441 275.349 36.7201 275.587 37.0261C275.825 37.2981 276.216 37.4341 276.76 37.4341C277.134 37.4341 277.576 37.3321 278.086 37.1281C278.596 36.8901 279.072 36.4991 279.514 35.9551L280.279 36.5671C279.565 37.7911 278.613 38.7771 277.423 39.5251C276.267 40.2391 274.805 40.5961 273.037 40.5961C271.915 40.5961 270.895 40.4431 269.977 40.1371C269.093 39.8651 268.362 39.4401 267.784 38.8621C267.036 38.1141 266.56 37.1961 266.356 36.1081C266.152 34.9861 266.05 33.5411 266.05 31.7731V14.4331H262.174V13.4131H266.05V7.39508C267.852 7.39508 269.484 7.22508 270.946 6.88508C272.442 6.51108 273.87 5.93308 275.23 5.15108ZM291.989 12.6991C293.485 12.6991 294.794 12.8691 295.916 13.2091C297.072 13.5151 297.905 13.8041 298.415 14.0761C299.605 14.7901 300.336 14.3481 300.608 12.7501H301.628C301.56 13.7361 301.509 14.9431 301.475 16.3711C301.441 17.7651 301.424 19.6181 301.424 21.9301H300.404C300.268 20.6721 299.962 19.4311 299.486 18.2071C299.044 16.9831 298.381 15.9631 297.497 15.1471C296.647 14.3311 295.525 13.9231 294.131 13.9231C293.281 13.9231 292.567 14.1781 291.989 14.6881C291.411 15.1981 291.122 15.8951 291.122 16.7791C291.122 17.7991 291.428 18.7171 292.04 19.5331C292.652 20.3151 293.434 21.0801 294.386 21.8281C295.338 22.5421 296.29 23.3071 297.242 24.1231C298.806 25.3811 300.115 26.6391 301.169 27.8971C302.223 29.1551 302.75 30.7701 302.75 32.7421C302.75 34.2721 302.274 35.6321 301.322 36.8221C300.404 38.0121 299.163 38.9471 297.599 39.6271C296.069 40.2731 294.352 40.5961 292.448 40.5961C291.258 40.5961 290.221 40.4601 289.337 40.1881C288.453 39.9501 287.739 39.6611 287.195 39.3211C286.651 39.0491 286.175 38.8451 285.767 38.7091C285.393 38.5391 285.019 38.4541 284.645 38.4541C284.305 38.4541 284.016 38.6411 283.778 39.0151C283.54 39.3551 283.353 39.7631 283.217 40.2391H282.197C282.265 39.1511 282.316 37.8251 282.35 36.2611C282.384 34.6971 282.401 32.6231 282.401 30.0391H283.421C283.625 31.8411 284.016 33.4391 284.594 34.8331C285.206 36.2271 285.971 37.3321 286.889 38.1481C287.841 38.9301 288.929 39.3211 290.153 39.3211C290.935 39.3211 291.615 39.1001 292.193 38.6581C292.805 38.1821 293.111 37.4681 293.111 36.5161C293.111 35.0201 292.652 33.7621 291.734 32.7421C290.85 31.7221 289.728 30.6001 288.368 29.3761C287.348 28.4241 286.379 27.5061 285.461 26.6221C284.577 25.7041 283.846 24.7181 283.268 23.6641C282.69 22.5761 282.401 21.3691 282.401 20.0431C282.401 18.5131 282.843 17.2041 283.727 16.1161C284.645 15.0281 285.835 14.1951 287.297 13.6171C288.759 13.0051 290.323 12.6991 291.989 12.6991Z" fill="#2F2E2E"/>
</svg>
